<?xml version="1.0" encoding="UTF-8" standalone="no"?>
<svg
   xmlns:dc="http://purl.org/dc/elements/1.1/"
   xmlns:cc="http://creativecommons.org/ns#"
   xmlns:rdf="http://www.w3.org/1999/02/22-rdf-syntax-ns#"
   xmlns:svg="http://www.w3.org/2000/svg"
   xmlns="http://www.w3.org/2000/svg"
   viewBox="0 0 1333.3333 1000"
   height="1000"
   width="1333.3333"
   id="svg2"
   version="1.1">
  <metadata
     id="metadata8">
    <rdf:RDF>
      <cc:Work
         rdf:about="">
        <dc:format>image/svg+xml</dc:format>
        <dc:type
           rdf:resource="http://purl.org/dc/dcmitype/StillImage" />
        <dc:title></dc:title>
      </cc:Work>
    </rdf:RDF>
  </metadata>
  <defs
     id="defs6" />
  <path
     id="path14"
     d="m 649.36545,985.87122 c -10.6662,-14.6409 -14.4368,-27.88741 -11.9526,-41.99042 1.4095,-8.00156 7.1059,-21.79447 11.2092,-27.14107 1.8631,-2.42773 2.0405,-2.17192 2.7731,4 0.4305,3.62648 1.2335,19.4936 1.7844,35.26027 0.8781,25.13212 1.1139,27.26932 1.9125,17.33332 0.501,-6.23332 1.0149,-19.43332 1.1421,-29.33332 0.1272,-9.9 0.6367,-20.68769 1.1323,-23.97267 l 0.9012,-5.97265 4.4739,6.97515 c 13.7037,21.36492 12.0889,47.83134 -4.0375,66.17479 l -4.5756,5.2046 z M 619.18625,929.034 c -9.0388,-24.15827 -5.9083,-41.37247 10.7652,-59.19641 8.3419,-8.9176 11.1722,-10.5562 9.5071,-5.50426 -0.5438,1.65 -0.8638,10.5 -0.7111,19.66667 0.3127,18.76401 -1.3842,25.8028 -9.7716,40.53288 -7.3049,12.82919 -6.7663,12.58156 -9.7896,4.50112 z M 682.40155,929 c -1.8215,-3.11667 -5.2968,-9.86667 -7.7229,-15 -4.3125,-9.12492 -4.4135,-9.75017 -4.524,-28 -0.062,-10.26667 -0.5525,-20.01667 -1.0898,-21.66667 -1.6427,-5.04444 1.1757,-3.41476 9.519,5.50426 13.2658,14.18117 17.707,27.3244 14.9868,44.35189 -1.343,8.40709 -5.5704,20.47719 -7.1718,20.47719 -0.377,0 -2.1758,-2.55 -3.9973,-5.66667 z m -144.8006,-5.30884 c 0,-6.72213 5.4329,-24.14208 10.6673,-34.20316 6.8516,-13.16969 19.4781,-26.94857 38.0787,-41.55413 7.8921,-6.19696 17.5286,-13.9672 21.4147,-17.2672 14.5313,-12.34002 27.9367,-34.02398 36.3808,-58.8482 l 3.7934,-11.1518 1.023,5.224 c 1.4566,7.43838 -0.2744,32.66842 -3.2093,46.776 -3.2562,15.65228 -9.1633,30.70533 -17.8236,45.42024 -8.8725,15.07552 -30.1285,36.88046 -46.4581,47.65801 -11.4907,7.58387 -33.3232,18.61263 -40.2002,20.30728 -3.2477,0.80031 -3.6667,0.53049 -3.6667,-2.36104 z m 222,-1.49425 c -22.8321,-9.09626 -40.6492,-20.79043 -58.1236,-38.14912 -13.2671,-13.17926 -20.5721,-23.52583 -28.6301,-40.55098 C 663.23815,823.1944 660.04955,808.59412 659.41685,782 l -0.5392,-22.66667 4.591,12.38228 c 8.3673,22.56716 18.8426,40.74807 30.0208,52.10426 3.3613,3.41484 13.9115,12.26272 23.4448,19.66193 21.4207,16.62549 37.1309,32.95556 43.6626,45.38524 5.4981,10.46295 10.713,27.88407 10.0878,33.69987 l -0.417,3.87957 z m -406,-12.76778 c 0,-0.7103 1.526,-6.12189 3.391,-12.02573 6.4959,-20.56332 25.8722,-44.27753 48.8431,-59.77816 15.3828,-10.38019 38.6347,-21.40104 60.0798,-28.4764 10.806,-3.56519 20.255,-6.48217 20.9978,-6.48217 0.7428,0 -4.7985,3.18266 -12.3139,7.0726 -23.5857,12.20776 -53.6495,32.27125 -62.3311,41.59746 -2.4777,2.66164 -0.9375,2.00154 6,-2.57156 25.6854,-16.93148 63.6734,-32.69001 104.4977,-43.34877 l 15.1644,-3.95925 -0.7183,4.42666 c -1.2987,8.0028 -8.8378,23.95954 -15.5165,32.84104 -7.7781,10.34347 -18.5861,19.15099 -31.4295,25.6121 -12.155,6.11478 -20.3769,8.49158 -40.6645,11.75542 -34.6365,5.5723 -63.7417,15.54215 -89,30.48659 -3.85,2.27791 -7,3.56048 -7,2.85017 z m 595.3333,-3.62528 c -11.9147,-7.22116 -28.1327,-14.39997 -44.4453,-19.67348 -13.4276,-4.34085 -21.691,-6.18689 -54.1968,-12.10742 -36.0493,-6.56595 -62.1541,-27.42832 -73.5274,-58.76154 -5.3612,-14.76985 -5.8458,-14.44694 13.8362,-9.2201 40.3528,10.71626 74.6081,24.92984 100.3016,41.61816 13.6664,8.87652 11.6422,5.89156 -4.4341,-6.53871 -13.5536,-10.47972 -30.2384,-21.02823 -49.4623,-31.27108 -7.3728,-3.92841 -12.9464,-7.15167 -12.3858,-7.1628 0.5607,-0.0107 9.9311,2.91749 20.823,6.50803 56.7751,18.71588 95.4602,49.98373 108.4436,87.65129 2.1401,6.20896 3.7013,11.85537 3.4692,12.54761 -0.232,0.69223 -4.0219,-0.92325 -8.4219,-3.58996 z m -753.9999,-64.8522 c 0,-9.97541 4.3337,-23.25908 10.0161,-30.70108 5.7593,-7.5427 13.4983,-12.99988 24.9197,-17.57217 5.2822,-2.11464 11.6826,-6.15324 16.364,-10.32572 l 7.6885,-6.85271 -0.9674,4.58335 c -6.8185,32.3058 -30.1965,61.22228 -54.409,67.29923 -3.5993,0.90337 -3.6119,0.88085 -3.6119,-6.4309 z m 912.60265,4.64052 c -16.2186,-6.78774 -29.9795,-19.89158 -38.9049,-37.04738 -4.602,-8.8455 -11.0312,-27.29295 -11.0312,-31.65178 0,-0.63833 3.2831,1.83995 7.2957,5.50728 4.72,4.31376 10.4865,7.92027 16.3334,10.21523 17.8138,6.99212 28.8212,18.56051 32.9836,34.66461 2.5361,9.81199 2.7413,20.75059 0.3873,20.64538 -0.9167,-0.0409 -4.0954,-1.09098 -7.0639,-2.33334 z m -823.03075,-8.23926 c -14.578,-10.56024 -19.7392,-31.23744 -14.0837,-56.42303 3.1514,-14.03411 3.3619,-14.18691 8.9867,-6.52439 10.1011,13.76043 13.0592,24.96803 9.6686,36.63151 -2.6054,8.96229 -2.6547,17.19917 -0.1451,24.24529 1.0348,2.90526 1.7043,5.45946 1.4877,5.67598 -0.2165,0.21653 -2.8779,-1.40588 -5.9142,-3.60536 z m 735.76135,3.61233 c 0,-0.34648 0.9,-3.18084 2,-6.29857 2.5562,-7.24526 2.5251,-12.92584 -0.127,-23.14088 -1.1698,-4.50584 -1.8323,-10.40195 -1.4722,-13.10246 0.8386,-6.2894 6.0291,-17.42314 11.6969,-25.09 l 4.4355,-6 2.537,8 c 3.7265,11.75104 4.5326,31.81296 1.6468,40.98755 -2.6491,8.42208 -10.1287,18.73963 -16.3837,22.59996 -2.3833,1.47089 -4.3333,2.39088 -4.3333,2.0444 z M 593.79675,797.15061 c -22.2576,-9.51293 -29.7407,-10.97045 -56.1958,-10.94556 -20.9302,0.0197 -24.6363,0.37806 -35.9846,3.47944 -6.9581,1.9016 -12.8534,3.25523 -13.1006,3.00804 -0.6592,-0.65914 14.9323,-9.20469 26.7892,-14.68289 27.796,-12.84255 49.4259,-17.20823 81.2701,-16.4032 12.2691,0.31016 22.7517,1.00823 23.2947,1.55124 2.3794,2.3794 -4.1988,3.40163 -21.5967,3.356 -18.7718,-0.0492 -32.5446,1.86181 -42.0054,5.82843 -4.3211,1.8117 -3.1858,1.91469 15.3333,1.39084 13.9058,-0.39338 22.0191,-0.0327 26.6262,1.18398 l 6.6262,1.74974 -0.3628,6 c -0.1996,3.3 0.5803,8.65837 1.733,11.9075 1.1526,3.24914 1.6341,6.35728 1.0699,6.907 -0.5642,0.54974 -6.6377,-1.39902 -13.4967,-4.33056 z m 109.8846,4.31279 c -0.4009,-0.64871 0.1985,-3.79335 1.3319,-6.98809 1.1335,-3.19475 1.8977,-8.50864 1.6982,-11.80864 l -0.3628,-6 6.6261,-1.74974 c 4.6397,-1.22518 12.5959,-1.56777 26.5387,-1.14276 21.5228,0.65608 22.3557,-0.084 5.126,-4.55494 -8.19,-2.12523 -14.5797,-2.68743 -30.3752,-2.67266 -18.6,0.0175 -25.342,-0.97894 -22.9321,-3.38889 0.543,-0.54301 11.0257,-1.24108 23.2947,-1.55124 25.3848,-0.64173 38.6504,1.08541 58.7267,7.64604 17.1036,5.58921 51.0033,21.7694 49.2607,23.51197 -0.2867,0.28675 -4.4625,-0.60572 -9.2794,-1.98324 -29.6801,-8.48774 -65.1157,-6.70454 -91.8393,4.62156 -4.7087,1.99566 -10.4792,4.44108 -12.8233,5.43427 -2.3441,0.9932 -4.59,1.27505 -4.9909,0.62636 z m -506.0804,-12.29104 c -6.6561,-2.64635 -15.9237,-14.05967 -13.9758,-17.21152 0.4399,-0.7118 4.5145,-1.281 9.0545,-1.26489 9.6346,0.0341 17.7587,3.22453 22.0261,8.64969 4.5199,5.74612 3.7909,8.11225 -3.0285,9.82941 -7.0298,1.7701 -9.6186,1.7696 -14.0763,-0.003 z m 900.99995,-0.10933 c -3.5168,-0.93406 -5,-2.06596 -5,-3.8158 0,-3.95743 7.3946,-11.31048 13.0907,-13.01706 6.3142,-1.8918 19.7751,-2.06541 20.8851,-0.26938 2.0308,3.28585 -7.4406,14.65977 -14.3959,17.28766 -4.4158,1.66842 -7.7601,1.62588 -14.5799,-0.18542 z m -664.33325,-3.514 c -4.4,-1.31944 -10.7,-3.84442 -14,-5.61106 l -6,-3.21209 12.9099,-0.87239 c 15.6428,-1.05705 30.3259,-5.27926 36.0048,-10.35341 l 4.1817,-3.73632 -12.7162,-0.83529 c -8.8591,-0.58194 -20.7537,-2.9267 -39.2148,-7.73038 -52.8936,-13.76312 -51.1344,-13.44213 -74.4987,-13.59352 -24.545,-0.15905 -37.5543,1.89223 -57.7269,9.10219 -17.0989,6.1114 -31.9742,15.24091 -43.9175,26.95379 l -9.8505,9.66056 0.9142,-6.32723 c 2.1496,-14.87773 7.1709,-24.41503 17.9625,-34.11767 19.554,-17.58068 58.2626,-25.96352 103.3586,-22.38358 22.6315,1.7966 38.6689,4.80406 64.5061,12.0968 24.8768,7.02164 40.0103,9.48317 63.4201,10.31558 17.9264,0.63743 21.7281,0.35751 36.6667,-2.69976 24.4062,-4.99486 40.225,-6.63284 55.3333,-5.72954 12.0591,0.72098 26.5464,3.71565 28.9231,5.97868 0.5077,0.48342 -8.7923,0.95389 -20.6666,1.04548 -18.4819,0.14256 -23.4303,0.65149 -34.3751,3.5354 -16.317,4.29945 -23.3099,7.86212 -44.1977,22.51738 -23.3374,16.37394 -26.3184,17.586 -44.3503,18.03232 -11.1004,0.27475 -16.612,-0.2203 -22.6667,-2.03594 z m 402.9639,0.30722 c -3.5032,-1.07689 -12.2032,-5.94885 -19.3334,-10.82657 -7.1301,-4.87771 -15.4251,-10.53744 -18.4333,-12.57717 -17.2415,-11.69067 -57.4418,-21.22375 -82.0685,-19.46172 -5.0208,0.35924 -9.1287,0.45738 -9.1287,0.21809 0,-0.23928 4.05,-1.69399 9,-3.23265 18.1582,-5.64436 43.0639,-4.93739 77.6666,2.20465 14.9898,3.09391 18.679,3.36823 36.6667,2.72649 23.4131,-0.83529 38.5479,-3.2976 63.4201,-10.31794 25.8372,-7.29274 41.8746,-10.3002 64.5061,-12.0968 33.6098,-2.6681 66.39785,1.68006 86.85105,11.51766 20.0711,9.6538 31.7364,25.05038 34.3392,45.32304 l 0.8559,6.66667 -4.6344,-5.51128 c -14.4747,-17.21363 -44.4118,-33.04865 -72.5838,-38.39281 -26.77085,-5.07835 -50.20725,-3.93463 -80.75415,3.94088 -22.7205,5.85772 -26.5135,7.37573 -15.9795,6.39525 8.816,-0.82057 21.0971,1.70317 29.7369,6.11085 4.8554,2.47703 16.5387,11.47015 17.2418,13.27175 0.3498,0.89631 -13.5128,1.71239 -33.6659,1.98188 -10.5901,0.14161 -12.8231,-0.26169 -19.0061,-3.43276 -3.8534,-1.97628 -9.0916,-5.25727 -11.6406,-7.29109 l -4.6344,-3.69787 4.3073,-2.29819 c 5.5208,-2.94569 5.1472,-2.93464 -9.8238,0.29092 -6.8946,1.48548 -17.8842,3.08068 -24.4213,3.54488 l -11.8857,0.84402 4.1858,3.73998 c 5.6818,5.07667 20.3574,9.29887 36.0089,10.35978 l 12.9099,0.87509 -6.7618,3.53615 c -3.7191,1.94488 -10.4057,4.48034 -14.8591,5.63436 -10.0628,2.60752 -29.5271,2.58425 -38.0818,-0.0455 z m -491.6306,-12.66078 c -3.3,-0.73164 -9,-1.03072 -12.6666,-0.6646 l -6.6667,0.66565 6.3783,-5.85555 c 16.3326,-14.99396 38.8184,-19.002 59.0889,-10.53245 l 5.0997,2.13081 -4.6168,3.86016 c -9.0799,7.5918 -18.0072,11 -29.8058,11.37899 -5.946,0.19099 -13.511,-0.25136 -16.811,-0.98301 z m 117.0302,-39.26878 c -9.4681,-2.29516 -17.8272,-6.4825 -31.4265,-15.7426 -11.7009,-7.96745 -20.7253,-11.76736 -37.6037,-15.83394 -19.0128,-4.58084 -18.0003,-5.03807 10,-4.5158 29.8691,0.55713 39.757,2.41668 57.7266,10.85628 10.1188,4.75237 24.2116,16.74697 27.7786,23.6427 l 1.8966,3.66667 -10.3675,-0.11107 c -5.7022,-0.0611 -13.804,-0.9441 -18.0041,-1.96222 z m 359.4692,-1.60314 c 3.3564,-6.4906 15.3424,-17.24342 24.7052,-22.16346 5.0038,-2.62944 14.7298,-6.3604 21.6133,-8.29101 11.106,-3.11492 15.5185,-3.57625 39.1821,-4.09667 18.6952,-0.41114 26.0688,-0.17196 24.6667,0.80015 -1.1,0.76263 -3.2829,1.3958 -4.8509,1.40703 -5.2655,0.0377 -26.3951,6.70616 -35.876,11.32238 -5.1664,2.51554 -12.07,6.61739 -15.3414,9.11524 -13.5049,10.31179 -29.0228,15.52799 -46.2993,15.56308 l -9.7009,0.0197 1.9012,-3.67646 z m -43.8327,-15.69631 c -1.4667,-1.18708 -1.9113,-1.77511 -0.9881,-1.30672 0.9232,0.46839 2.8732,0.47244 4.3333,0.009 2.0929,-0.66425 2.6552,-2.02286 2.6566,-6.4194 l 10e-4,-5.57681 -7.0018,0.43237 c -12.5606,0.77538 -21.0014,-8.19672 -21.0014,-22.32424 0,-9.0426 4.1258,-18.07734 9.8487,-21.56708 4.6202,-2.81729 14.113,-3.36926 18.4086,-1.07036 2.1103,1.12943 3.014,1.05203 3.8919,-0.33333 0.743,-1.17259 1.1505,0.13307 1.1638,3.729 l 0.02,5.53333 -4.7021,-4.70205 c -4.1721,-4.17215 -5.2615,-4.61297 -9.6667,-3.91168 -14.4337,2.29785 -18.4103,27.03467 -6.2938,39.15117 4.5316,4.53159 8.2669,5.41506 12.7502,3.01566 2.1726,-1.16272 2.579,-2.85056 2.579,-10.70964 0,-8.42874 -0.2896,-9.4458 -3,-10.53524 -2.3211,-0.93298 -1.2435,-1.22498 4.7619,-1.29036 7.0563,-0.0768 7.5715,0.106 5.6667,2.01072 -1.6629,1.6629 -2.0995,5.30828 -2.1157,17.66666 -0.011,8.56428 -0.4672,16.27386 -1.0133,17.13239 -1.7742,2.78907 -7.4456,3.37623 -10.2996,1.06628 z m -249,-0.66879 c 2.9711,-1.19425 3,-1.46278 3,-27.91549 v -26.70963 h -5.353 c -4.6083,0 -5.7204,0.60276 -7.995,4.33334 L 516.27765,670 v -5.66667 l -0.01,-5.66666 h 19.3333 19.3333 l -0.1053,5.66666 c -0.058,3.11667 -0.4362,4.76667 -0.8406,3.66667 -1.6511,-4.49043 -4.8918,-6.66667 -9.9274,-6.66667 h -5.1267 v 26.70963 c 0,26.45271 0.029,26.72124 3,27.91549 2.2137,0.88979 0.5537,1.20586 -6.3333,1.20586 -6.887,0 -8.547,-0.31607 -6.3333,-1.20586 z m 67,-4.90437 c -3.6721,-1.3502 -6.9036,-4.96477 -15.0036,-16.78233 -9.7748,-14.26092 -12.144,-14.77236 -12.7227,-2.74654 -0.2951,6.13178 0.1437,8.70172 1.7619,10.31995 1.9842,1.98423 1.6512,2.15484 -4.207,2.15484 -4.9482,0 -6.0064,-0.35556 -4.762,-1.6 1.1007,-1.10061 1.6,-7.77251 1.6,-21.37629 0,-19.26259 -0.078,-19.80763 -3,-20.98216 -2.511,-1.0093 -2.0763,-1.21963 2.6667,-1.29036 3.1167,-0.0465 5.6667,0.47213 5.6667,1.15248 0,0.69986 3.1347,0.91346 7.2192,0.4919 6.501,-0.67096 7.5621,-0.40213 10.6666,2.7024 4.5068,4.50672 4.5774,10.55998 0.1748,14.96263 -1.8,1.8 -3.9,3.27273 -4.6667,3.27273 -0.7667,0 -1.3939,0.62302 -1.3939,1.38448 0,2.33966 15.7511,24.95664 18.9322,27.18482 2.9648,2.07661 1.3299,2.71861 -2.9322,1.15145 z m -15.8346,-33.20373 c 4.9618,-4.49038 1.5823,-15.18368 -4.7986,-15.18368 -6.6026,0 -7.3668,1.07024 -7.3668,10.3171 v 8.69847 l 4.832,-0.78412 c 2.6576,-0.43128 5.9576,-1.80277 7.3334,-3.04777 z m 153.8346,9.08908 -14.6667,-18.27276 -0.3784,15.98493 c -0.3284,13.87144 -0.074,16.20729 1.9215,17.66667 1.9383,1.4173 1.0544,1.65318 -5.6216,1.50016 -4.3568,-0.0999 -6.5561,-0.44362 -4.8873,-0.76388 3.0173,-0.57908 3.0322,-0.69466 2.6667,-20.78079 -0.3648,-20.04559 -0.3928,-20.21124 -3.7009,-21.88313 -3.1576,-1.59584 -3.0077,-1.68568 2.8433,-1.70431 l 6.1767,-0.0196 12.49,16.16236 12.49,16.16235 0.3446,-17.16235 c 0.3128,-15.58071 0.6029,-17.3774 3.1477,-19.49569 1.5417,-1.28334 4.3867,-2.3245 6.3221,-2.31368 l 3.5189,0.0196 -3.3333,1.68424 -3.3333,1.68424 -0.6667,24.9022 -0.6667,24.9022 z m -133.6316,15.3939 c 2.1004,-1.58304 6.2982,-10.14505 6.2982,-12.84606 0,-0.69578 -1.65,-1.9141 -3.6666,-2.70738 l -3.6667,-1.44233 4.3065,0.42969 c 4.2112,0.42019 4.385,0.22092 7.8501,-9.00212 5.289,-14.07752 6.9799,-18.09846 7.6108,-18.09846 0.3136,0 3.7581,9.11388 7.6545,20.25305 3.8963,11.13919 8.1704,21.33919 9.4978,22.66667 2.3293,2.32926 2.169,2.41289 -4.5864,2.3932 -4.349,-0.0133 -6.3246,-0.4485 -5.2166,-1.15079 0.9808,-0.62171 1.5808,-2.48283 1.3333,-4.13583 -0.3523,-2.3529 -2.3286,-3.68388 -9.1023,-6.1302 -4.7588,-1.71861 -9.0269,-2.6983 -9.4847,-2.17709 -0.4578,0.52121 -1.5333,3.04179 -2.39,5.60128 -1.3408,4.00608 -1.2379,4.88736 0.7396,6.33333 1.9756,1.44466 1.4794,1.67971 -3.5459,1.67971 -4.965,0 -5.5107,-0.25047 -3.6316,-1.66667 z m 21.4492,-22.38425 c -2.0745,-5.83867 -4.1212,-10.61575 -4.5482,-10.61575 -0.9652,0 -7.1293,17.25119 -6.4182,17.96231 1.545,1.54501 13.8865,5.34131 14.2769,4.39163 0.2537,-0.61735 -1.236,-5.89954 -3.3105,-11.73819 z m 24.0871,21.95568 c 1.7028,-1.70275 2.0915,-5.51173 2.0749,-20.33333 -0.011,-10.03095 -0.4613,-18.91868 -1,-19.75052 -0.5388,-0.83183 -2.1796,-1.81223 -3.6463,-2.17867 -1.4667,-0.36643 0.1333,-0.73584 3.5556,-0.82091 3.4222,-0.0851 6.4222,0.40108 6.6666,1.08032 0.2668,0.74118 2.9267,0.66283 6.6525,-0.19594 5.3782,-1.2397 6.8032,-1.08327 10.6621,1.17042 15.4752,9.03804 14.6499,35.8714 -1.2903,41.94728 -1.6977,0.64712 -8.1906,1.17659 -14.4285,1.17659 -10.3107,0 -11.1513,-0.19048 -9.2466,-2.09524 z m 20.1682,-1.36205 c 5.4193,-2.57164 9.9399,-11.08068 9.8978,-18.63034 -0.075,-13.38209 -10.6454,-23.56216 -20.5283,-19.76972 -1.7874,0.68586 -2.1091,3.72198 -2.1091,19.90223 0,17.06256 0.2481,19.15776 2.3333,19.70268 4.286,1.12005 5.9009,0.93307 10.4063,-1.20485 z m 23.7108,1.7803 c 2.0178,-1.47546 2.2487,-3.9946 1.9215,-20.96256 -0.3677,-19.06926 -0.4093,-19.30446 -3.7052,-20.97002 -2.968,-1.4998 -2.2372,-1.67734 6.6666,-1.61959 7.2406,0.0469 9.1832,0.39353 7.0399,1.25595 -4.0753,1.63985 -4.6645,5.12554 -4.1514,24.55954 0.3479,13.17506 0.881,17.1245 2.4449,18.1111 1.4027,0.88494 -0.1666,1.26784 -5.2549,1.28216 -6.1517,0.0173 -6.9061,-0.23459 -4.9614,-1.65658 z m 486.88285,-1.04386 c -17.7442,-2.7615 -45.0258,-13.74672 -54.6666,-22.01208 l -4,-3.42932 6.3333,3.54116 c 3.4833,1.94762 6.3333,3.17128 6.3333,2.7192 0,-0.45207 -1.6351,-3.29278 -3.6335,-6.31267 -5.5303,-8.35672 -5.8491,-20.59317 -0.7935,-30.45072 3.4582,-6.74283 10.5337,-13.34248 14.2909,-13.32973 0.8082,0.003 -0.3837,1.13506 -2.6488,2.51628 -5.9519,3.62942 -9.6346,8.88504 -12.0514,17.19844 -4.4565,15.3299 3.0064,29.8133 19.2039,37.26918 13.0453,6.0049 30.5511,8.67431 52.2991,7.97498 21.6876,-0.69739 31.1212,-2.9674 47.1724,-11.35115 29.7502,-15.53896 48.8276,-51.78597 48.8276,-92.77255 0,-31.28061 -8.7688,-54.12793 -27.9943,-72.9401 -18.0089,-17.62172 -41.4893,-26.76315 -75.2347,-29.29048 l -14.771,-1.10626 16.6667,0.61716 c 9.1666,0.33944 19.1903,1.11582 22.2748,1.72528 l 5.6082,1.1081 -4.6135,-5.3898 c -2.5374,-2.96439 -5.2077,-7.529 -5.9341,-10.1436 -1.338,-4.81646 -1.8347,-14.7538 -0.7375,-14.7538 0.3289,0 2.1763,1.46273 4.1054,3.25053 1.9291,1.78779 5.2645,3.63645 7.412,4.10813 5.6542,1.24187 18.7272,10.44499 22.1942,15.62424 1.637,2.44534 3.3501,6.31542 3.8071,8.60019 0.8106,4.05321 0.6374,3.96608 -7.1297,-3.58721 -4.3782,-4.25774 -9.9225,-8.75594 -12.3205,-9.996 -5.8868,-3.04422 18.1394,20.80394 25.7626,25.57172 15.3153,9.57854 27.1328,22.90976 34.9146,39.38696 7.8018,16.51932 9.3336,24.43349 9.234,47.7081 -0.08,18.59938 -0.4551,21.86703 -3.7544,32.66667 -11.5955,37.95513 -37.0916,64.03679 -71.1076,72.74063 -12.1261,3.10276 -33.6353,4.31481 -45.049,2.53852 z m -62.17,-27.61248 c -1.6585,-2.11475 -1.6114,-2.16191 0.5034,-0.50342 1.2833,1.00647 2.3333,2.05647 2.3333,2.33334 0,1.09738 -1.0949,0.39108 -2.8367,-1.82992 z m -30.3325,-2.98967 c -2.4765,-0.59185 -5.971,-2.54449 -7.7657,-4.3392 l -3.2631,-3.26309 10.1732,-0.85995 c 8.66,-0.73205 10.9553,-0.46091 15.4323,1.82308 8.0195,4.09123 7.048,5.17861 -6.4075,7.17204 -2.0167,0.29877 -5.6928,0.0589 -8.1692,-0.53288 z m 72.8148,-6.66956 c -2.0051,-1.57721 -3.6456,-3.97503 -3.6456,-5.32849 0,-3.96635 1.4697,-6.67895 3.6186,-6.67895 1.3082,0 1.709,0.75855 1.1586,2.19283 -1.1146,2.90464 2.8398,7.1405 6.666,7.1405 4.3552,0 8.5568,-5.97873 8.5568,-12.17597 0,-4.06408 -1.054,-6.33283 -5,-10.76213 -4.9651,-5.5733 -4.9705,-5.59182 -0.7705,-2.65366 5.9555,4.16623 9.1044,12.829 7.2145,19.84743 -2.6027,9.66589 -11.1019,13.68589 -17.7984,8.41844 z m -54.8604,-4.10975 C 1098.3186,655.06371 1097.3218,644 1100.9538,644 c 3.2028,0 7.3033,8.04147 7.3088,14.33333 0.01,6.73628 -1.2445,7.06916 -5.8765,1.56436 z M 509.83605,634.57333 c -14.8131,-2.91509 -32.0416,-15.60757 -39.2397,-28.90841 -11.0235,-20.36947 -10.9996,-48.33909 0.059,-68.77088 4.956,-9.15696 17.2037,-20.03951 26.5665,-23.60539 9.7109,-3.69842 29.055,-4.99744 39.2129,-2.63324 21.0172,4.89167 36.1489,19.9315 41.9402,41.68583 2.3823,8.94889 2.3978,30.31099 0.028,39.21023 -4.18,15.69908 -14.8528,30.12012 -27.3089,36.8996 -11.5861,6.30596 -27.9702,8.73718 -41.258,6.12226 z m 26.853,-10.02937 c 8.8903,-3.02924 18.7462,-12.40979 23.4508,-22.31979 14.939,-31.46802 3.5461,-72.10058 -23.001,-82.03314 -9.8963,-3.70267 -22.3096,-3.77868 -31.8871,-0.1953 -21.9132,8.19879 -33.8048,38.94958 -26.8637,69.46748 3.7236,16.37122 16.8596,31.83695 30.3659,35.75138 6.7786,1.96461 21.2185,1.61796 27.9351,-0.67063 z m 344.4459,10.13196 c -3.5563,-0.63772 -9.7369,-2.75979 -13.7347,-4.71569 -13.2983,-6.50628 -18.6715,-20.36071 -10.9076,-28.1246 3.6134,-3.61344 6.4323,-3.3617 6.4541,0.5764 0.028,4.99474 7.9651,16.12905 14.0329,19.68505 7.1436,4.18644 19.6511,5.67077 28.2273,3.34989 10.016,-2.71052 17.7273,-11.73126 17.7273,-20.73748 0,-2.92437 -0.5834,-3.37616 -4.3601,-3.37616 -6.369,0 -23.279,-4.97522 -30.9153,-9.09585 -11.3023,-6.09876 -22.7723,-17.94608 -28.3963,-29.33027 l -4.9949,-10.11092 v -17.46954 -17.46954 l 5.0819,-10.28041 c 11.6995,-23.66716 33.0812,-36.49221 63.1995,-37.90812 23.7556,-1.11677 34.8792,1.79725 69.7186,18.26404 30.62075,14.47292 49.86035,20.06976 61.50285,17.89133 6.451,-1.20705 13.6589,-5.47334 16.219,-9.5999 1.6502,-2.6599 2.2161,-2.96974 2.2426,-1.22799 0.05,3.30511 -8.7915,12.66641 -15.2069,16.1004 -4.7919,2.56496 -7.445,2.89759 -22.7576,2.8532 -14.7117,-0.0427 -18.4425,-0.49629 -24.6666,-2.99933 -4.0333,-1.622 -7.4822,-2.94939 -7.6641,-2.94976 -0.1819,-3.6e-4 -0.3195,25.44814 -0.3058,56.55224 0.028,64.64018 -0.4723,61.79034 11.0854,63.09306 4.9026,0.5526 6.2498,1.20411 5.9303,2.86787 -0.3589,1.86844 -3.5375,2.20092 -24.06295,2.51692 -22.9706,0.35365 -23.6496,0.28665 -23.6496,-2.33333 0,-2.12111 0.8734,-2.69743 4.0877,-2.69743 4.579,0 9.1007,-2.04508 11.5366,-5.21779 2.3121,-3.01138 2.3506,-33.44102 0.042,-33.46929 -1.3182,-0.0161 -1.3143,-0.24411 0.019,-1.09031 1.3137,-0.8339 1.6078,-10.58486 1.3333,-44.20928 l -0.3521,-43.1394 -16.6667,-7.59614 c -25.1356,-11.45606 -31.9228,-13.4681 -48.139,-14.27062 -16.1256,-0.79804 -24.2907,0.65055 -36.8238,6.53304 -16.6192,7.80036 -27.3824,22.7378 -30.131,41.8168 -3.8609,26.79976 8.6216,50.69128 33.2353,63.61278 12.5769,6.60249 32.5252,11.35158 32.5252,7.74328 0,-0.70783 -1.8772,-3.42491 -4.1715,-6.03798 -2.8619,-3.25954 -10.2281,-7.74686 -23.4645,-14.294 -28.5737,-14.13345 -36.364,-22.21309 -36.364,-37.71442 0,-17.67232 13.1763,-29.6885 34.036,-31.03919 17.4784,-1.13173 32.1978,4.51112 37.2495,14.28001 3.2643,6.31254 2.6818,15.57975 -1.2249,19.48644 -4.9737,4.97372 -6.9558,4.21546 -8.0004,-3.0606 -2.2408,-15.60692 -10.0048,-23 -24.1541,-23 -17.3799,0 -29.2728,13.09219 -24.6412,27.12602 2.3954,7.25806 10.6114,13.55334 30.0832,23.05052 20.0322,9.7705 28.3619,16.23008 31.8711,24.7158 1.3133,3.17588 2.914,6.79652 3.557,8.04585 0.7043,1.36833 0.6499,2.59247 -0.1368,3.07869 -0.7184,0.44394 -1.3159,2.42176 -1.328,4.39515 -0.056,9.18103 -11.7175,21.1568 -24.2155,24.86829 -8.8677,2.63343 -21.473,3.51278 -29.5619,2.06227 z m 288.42265,-2.34259 c -5.3103,-6.7061 -3.3712,-13.64213 13.3367,-47.70445 24.912,-50.7878 28.8123,-62.52317 22.7834,-68.55204 -4.0917,-4.09179 -1.6172,-6.74351 6.2929,-6.74351 5.2611,0 6.6636,0.65352 10.8368,5.04959 4.1603,4.38257 7.1707,11.64763 22.7897,55 19.2184,53.34245 21.9063,58.61708 29.8705,58.61708 2.5934,0 3.4666,0.68095 3.4666,2.70328 0,2.60621 -0.6815,2.68999 -18.9833,2.33333 -16.8473,-0.32832 -19.0337,-0.63249 -19.4311,-2.70328 -0.33,-1.71978 0.4294,-2.33333 2.8881,-2.33333 3.5324,0 7.5794,-3.13103 7.4476,-5.76191 -0.043,-0.86428 -2.3674,-7.87142 -5.1647,-15.57142 l -5.086,-14 -24.6988,-0.36226 -24.6988,-0.36225 -4.2089,10.11028 c -5.2315,12.5666 -6.4706,21.52104 -3.7365,27.00179 1.914,3.8366 1.862,4.06844 -1.2272,5.476 -5.3571,2.44084 -9.3631,1.73548 -12.477,-2.1969 z m 66.7215,-50.66666 c 0.019,-1.62526 -16.3095,-47.57078 -17.3096,-48.7069 -0.5037,-0.57213 -2.6114,3.32787 -4.6838,8.66667 -2.0724,5.33879 -6.9743,16.54509 -10.8931,24.90289 -3.9188,8.3578 -7.125,15.4078 -7.125,15.66667 0,0.25887 9,0.47067 20,0.47067 11,0 20.0052,-0.45 20.0115,-1 z M 32.267636,630.70231 c 0,-1.84208 0.87678,-2.70231 2.75432,-2.70231 3.13694,0 8.10501,-2.35599 9.5586,-4.53293 0.53877,-0.8069 0.98877,-24.38304 1,-52.39147 l 0.0204,-50.92439 -2.96334,-2.07561 C 41.007776,516.93403 38.007776,516 35.970946,516 c -2.40296,0 -3.70333,-0.70227 -3.70333,-2 0,-1.68889 3.11111,-2 20,-2 16.88889,0 20,0.31111 20,2 0,1.29773 -1.30037,2 -3.70332,2 -2.03683,0 -5.03683,0.93403 -6.66667,2.0756 l -2.96334,2.07561 v 51.16095 51.16096 l 3.51314,2.76344 c 1.93223,1.51989 4.97623,2.76344 6.76444,2.76344 2.37818,0 3.13102,0.6266 2.80345,2.33333 -0.39845,2.07599 -2.61502,2.37403 -20.09777,2.70231 -18.9688,0.35619 -19.64993,0.27531 -19.64993,-2.33333 z m 60.92579,1.77904 c -2.23444,-2.23446 -0.53867,-4.20243 4.28591,-4.97391 5.546974,-0.887 12.121634,-7.03251 12.121634,-11.3304 0,-1.25677 1.49998,-20.53644 3.33338,-42.84371 4.1858,-50.93205 4.1968,-52.57726 0.37,-55.25773 -1.6299,-1.14157 -4.92989,-2.0756 -7.33339,-2.0756 -2.99555,0 -4.36999,-0.62904 -4.36999,-2 0,-1.64985 2.43308,-2 13.89768,-2 12.8585,0 14.1923,0.24789 17.8374,3.31503 3.009,2.53186 7.7353,12.2179 20.006,41 8.8365,20.72673 17.3479,40.95404 18.9142,44.94956 1.5662,3.99552 3.1979,7.83118 3.6259,8.52369 1.1635,1.88267 2.9358,-2.06803 18.898,-42.12816 17.2724,-43.34807 18.5295,-45.95744 24.7887,-51.45303 4.6907,-4.11856 5.0712,-4.20709 18.0785,-4.20709 10.3611,0 13.287,0.40223 13.287,1.8266 0,1.18669 -2.1904,2.07348 -6.2523,2.53131 -6.8777,0.77522 -9.7623,3.41454 -9.7237,8.89693 0.013,1.87651 2.0465,23.58108 4.5183,48.2324 3.3317,33.22573 5.055,45.67615 6.6614,48.12784 2.3534,3.59181 7.3954,6.38492 11.5257,6.38492 1.7268,0 2.6039,0.9106 2.6039,2.70328 0,2.60621 -0.6816,2.68999 -18.9834,2.33333 -16.2978,-0.31761 -19.0423,-0.67721 -19.4,-2.542 -0.2692,-1.4033 0.8033,-2.47825 3.0305,-3.03722 1.896,-0.47587 3.9496,-2.19844 4.5636,-3.82796 1.7406,-4.61959 -6.9345,-93.05584 -8.7922,-89.62943 -0.7952,1.46667 -6.0633,14.06667 -11.7069,28 -19.3886,47.86788 -27.6278,66.10199 -30.8108,68.18763 -1.675,1.09748 -4.948,1.80422 -7.2734,1.57056 -4.0881,-0.4108 -4.2364,-0.64531 -4.4824,-7.09152 -0.2731,-7.1558 -3.2625,-14.90443 -24.8434,-64.39335 -6.8099,-15.61633 -12.8238,-27.91633 -13.3643,-27.33333 -0.5405,0.58301 -2.2486,16.96001 -3.7958,36.39334 -4.2843,53.81254 -4.1877,56.60166 2.0141,58.15819 2.1121,0.53011 3.1603,1.6176 2.8946,3.00309 -0.355,1.8517 -2.9815,2.22666 -17.8076,2.54228 -9.56505,0.20363 -17.807644,-0.0464 -18.316824,-0.55554 z M 274.93435,630.9432 c 0,-1.70365 1.7114,-2.84785 5.9586,-3.98383 3.664,-0.97996 6.7812,-2.84905 8.0946,-4.85349 1.6265,-2.48233 3.0768,-14.49064 6.081,-50.34951 2.1698,-25.89933 3.6104,-48.46093 3.2015,-50.13686 -0.8207,-3.3634 -5.4066,-5.61951 -11.4225,-5.61951 -2.5896,0 -3.9132,-0.67652 -3.9132,-2 0,-1.64381 2.3634,-2 13.2706,-2 14.3096,0 18.8526,1.28789 22.117,6.27003 1.6686,2.54657 30.5804,69.77002 37.8675,88.04636 0.9465,2.37401 2.1562,4.04741 2.6881,3.71866 1.1279,-0.69708 6.0393,-12.52546 22.6667,-54.58965 12.4027,-31.37673 16.024,-37.98101 22.7261,-41.4468 5.5059,-2.8472 27.9973,-2.84608 27.9973,10e-4 0,1.40171 -1.4142,2 -4.7273,2 -7.2517,0 -11.4365,4.85175 -10.5726,12.2576 0.3683,3.15832 2.4829,24.3424 4.699,47.07573 2.216,22.73334 4.3399,42.35699 4.7196,43.60811 1.1746,3.86969 8.4768,9.05856 12.748,9.05856 3.0869,0 3.8937,0.5306 3.5477,2.33333 -0.3973,2.07079 -2.5837,2.37496 -19.4311,2.70328 -18.3018,0.35666 -18.9833,0.27288 -18.9833,-2.33333 0,-1.4868 0.807,-2.70328 1.7933,-2.70328 0.9864,0 2.8767,-1.19708 4.2008,-2.66017 2.3245,-2.56856 2.262,-4.1642 -1.817,-46.33334 -2.3234,-24.02024 -4.2402,-44.57316 -4.2597,-45.67316 -0.06,-3.41228 -4.4967,6.27624 -15.8744,34.66667 -21.9469,54.76369 -26.3786,63.44172 -32.7097,64.05061 -6.7768,0.65176 -7.3333,0.19547 -7.3333,-6.01222 0,-7.25504 -4.3353,-19.25302 -18.3217,-50.70506 -5.8698,-13.2 -12.6752,-28.8 -15.123,-34.66666 L 310.37255,530 l -0.959,5.52611 c -1.2067,6.95453 -6.487,73.69196 -6.4825,81.9339 0,6.07548 2.7318,10.53999 6.4416,10.53999 0.8589,0 1.5617,1.2 1.5617,2.66667 0,2.53497 -0.8889,2.66666 -18,2.66666 -16.417,0 -18,-0.21021 -18,-2.39013 z m 324.8888,1.50124 c -2.0551,-2.05517 -0.6859,-4.44444 2.547,-4.44444 2.0291,0 5.0508,-1.61489 7.3799,-3.94397 l 3.944,-3.94398 -0.3799,-50.16454 c -0.3626,-47.88328 -0.4975,-50.25056 -2.968,-52.05603 -1.4235,-1.04032 -4.5735,-1.89148 -7,-1.89148 -2.8084,0 -4.4119,-0.65225 -4.4119,-1.79465 0,-2.1403 28.1172,-4.25778 54.6667,-4.11692 19.9557,0.10586 28.0811,2.64741 38.5469,12.05709 25.3739,22.81335 24.5358,76.45041 -1.5613,99.91393 -9.6865,8.70902 -18.7146,11.596 -34.5584,11.0511 -14.9503,-0.51419 -20.4272,-3.13526 -20.4272,-9.77579 0,-4.32713 3.695,-7.36539 6.4797,-5.32795 7.2571,5.30992 9.5787,6.40248 14.8726,6.99918 23.1929,2.61417 39.3144,-19.27982 39.3144,-53.39134 0,-36.41973 -19.6308,-56.47182 -52.5959,-53.72477 -5.8278,0.48564 -12.1278,1.61675 -14,2.51357 l -3.4041,1.6306 -0.6667,50.22055 c -0.6417,48.33704 -0.7713,50.36165 -3.4582,53.98297 -1.5354,2.06934 -4.8354,4.47856 -7.3333,5.35384 -5.0098,1.75538 -13.5952,2.24407 -14.9863,0.85303 z m 133.3334,0 c -0.4889,-0.48888 -0.8889,-1.98888 -0.8889,-3.33333 0,-1.87315 1.0213,-2.44444 4.37,-2.44444 2.4035,0 5.7035,-0.93403 7.3333,-2.0756 l 2.9633,-2.07562 v -51.18212 -51.18212 l -2.9633,-2.07561 c -1.6298,-1.14157 -4.6298,-2.0756 -6.6667,-2.0756 -2.2085,0 -3.7033,-0.72199 -3.7033,-1.78872 0,-1.40565 5.6141,-1.97673 26.2144,-2.66667 52.8338,-1.76945 58.8352,-1.20602 62.4928,5.86707 3.8434,7.4324 1.4009,19.31936 -4.6333,22.5488 -3.8168,2.04264 -4.0735,1.81439 -4.0789,-3.62715 -0.01,-6.71406 -4.3089,-13.3768 -10.237,-15.8537 -7.0537,-2.94723 -34.4308,-2.10298 -39.4898,1.21777 l -3.6015,2.36408 v 20.63592 20.63593 h 18.591 c 17.2738,0 18.7277,0.19507 20.5193,2.75292 2.4562,3.50663 1.4692,7.26436 -2.7874,10.61258 -4.2525,3.345 -6.4941,3.34009 -7.3717,-0.0161 -0.9962,-3.8093 -6.2941,-5.34936 -18.4021,-5.34936 h -10.6107 l 0.3641,23.65004 0.3641,23.65004 3.4666,1.66014 c 5.3305,2.5528 24.7421,3.60878 33.3624,1.8149 8.7006,-1.81057 17.7678,-8.68648 20.6958,-15.69418 2.1307,-5.09967 3.4573,-5.43216 7.108,-1.78152 3.7868,3.78685 4.5177,8.295 2.2318,13.766 -2.6962,6.4529 -10.1234,10.06933 -23.9435,11.65853 -12.4185,1.42801 -69.3462,1.73976 -70.6988,0.38716 z M 1053.6009,630 c 0,-2.78641 0.6321,-3.33333 3.8523,-3.33333 2.1187,0 5.2687,-1.14631 7,-2.54735 l 3.1477,-2.54735 0.3887,-40.78598 c 0.3977,-41.73631 0.209,-43.41034 -4.4834,-39.78599 -0.7121,0.55 0.1475,-0.28601 1.9102,-1.85781 2.8629,-2.5528 3.1368,-3.68007 2.5661,-10.56232 -0.5277,-6.3631 -1.2678,-8.20595 -4.2507,-10.58442 -2.8525,-2.27448 -3.2458,-3.1732 -1.8713,-4.27521 0.9572,-0.76743 12.5404,-1.82856 25.7404,-2.35807 13.2,-0.5295 25.1224,-1.56246 26.4942,-2.29548 1.7675,-0.94441 2.2302,-0.90548 1.588,0.13362 -0.624,1.0096 1.8312,1.46636 7.8819,1.46636 9.8455,0 17.1057,2.43722 19.2619,6.46613 0.7924,1.48053 1.4407,5.77749 1.4407,9.54877 0,5.9496 -0.566,7.4167 -4.2776,11.08766 l -4.2776,4.23077 -1.5996,-7.09263 c -2.8152,-12.48269 -8.5032,-16.2407 -24.5816,-16.2407 -10.457,0 -11.2169,0.2147 -20.0548,5.66666 l -9.186,5.66667 -0.012,17.66667 -0.011,17.66666 h 18.5714 c 15.1053,0 18.9625,0.39104 20.6667,2.09524 3.0522,3.05219 2.5908,5.61435 -1.8022,10.00732 -4.5426,4.54259 -7.5089,4.97848 -8.4847,1.24683 -0.9962,-3.80933 -6.2941,-5.34939 -18.4021,-5.34939 h -10.6107 l 0.3641,23.65004 0.3641,23.65004 4,1.94942 c 2.7722,1.35102 8.716,1.97005 19.3636,2.01662 13.9022,0.0608 15.9947,-0.25528 22,-3.32338 5.0171,-2.56327 7.6125,-5.07379 10.6364,-10.28876 2.2,-3.794 4.4773,-6.91823 5.0606,-6.94275 0.5834,-0.0245 2.5334,1.42817 4.3334,3.22817 3.9411,3.94108 4.2087,9.17595 0.7585,14.83399 -5.4645,8.96111 -18.2086,11.20093 -63.8191,11.21649 l -29.6667,0.0101 z m 38.6667,-109.62667 c 1.741,-1.63844 1.482,-1.76392 -2,-0.96912 -5.5519,1.26727 -10,4.26318 -10,6.73527 0,1.72125 0.8584,1.56623 5,-0.903 2.75,-1.63955 5.9,-3.82797 7,-4.86315 z m 51.75,110.71586 c 0.9625,-0.38516 2.1125,-0.3378 2.5555,0.1052 0.4431,0.44305 -0.3444,0.75818 -1.75,0.70029 -1.5532,-0.064 -1.8692,-0.37992 -0.8055,-0.80555 z M 941.26765,600.39236 c 1.65,-0.31781 4.35,-0.31781 6,0 1.65,0.3178 0.3,0.57783 -3,0.57783 -3.3,0 -4.65,-0.26003 -3,-0.57783 z m 10.6666,-1.2754 c 0.9167,-0.36988 2.4167,-0.36988 3.3334,0 0.9166,0.36988 0.1666,0.67252 -1.6667,0.67252 -1.8333,0 -2.5833,-0.30264 -1.6667,-0.67252 z m 6.75,-1.36111 c 0.9625,-0.38516 2.1125,-0.3378 2.5556,0.1052 0.4431,0.44306 -0.3445,0.75819 -1.75,0.7003 -1.5533,-0.064 -1.8692,-0.37992 -0.8056,-0.80555 z m 5.3334,-1.33333 c 0.9625,-0.38516 2.1125,-0.3378 2.5555,0.1052 0.4431,0.44305 -0.3444,0.75819 -1.75,0.70029 -1.5532,-0.064 -1.8692,-0.37992 -0.8055,-0.80554 z m 42.91665,-18.32869 c 0,-0.36667 1.2,-1.3089 2.6666,-2.09383 1.4667,-0.78493 2.6667,-1.12716 2.6667,-0.76049 0,0.36666 -1.2,1.30889 -2.6667,2.09382 -1.4666,0.78494 -2.6666,1.12716 -2.6666,0.7605 z m 8.6666,-5.45131 c 1.4667,-1.19419 3.8667,-2.76039 5.3333,-3.48044 l 2.6667,-1.30919 -2.6667,2.17126 c -1.4666,1.19418 -3.8666,2.76038 -5.3333,3.48044 l -2.6667,1.30918 z m 24.6667,-15.87649 c 0,-0.36667 3.6,-3.11138 8,-6.09936 4.4,-2.98799 8,-5.1327 8,-4.76603 0,0.36667 -3.6,3.11137 -8,6.09936 -4.4,2.98799 -8,5.13269 -8,4.76603 z m 114.4166,-63.01018 c 0.9625,-0.38516 2.1125,-0.3378 2.5556,0.1052 0.4431,0.44306 -0.3445,0.75819 -1.75,0.7003 -1.5533,-0.064 -1.8692,-0.37992 -0.8056,-0.80555 z M 647.47225,485.66667 C 644.02095,481.45 639.03795,473.5 636.39905,468 c -4.4701,-9.3164 -4.7981,-10.86589 -4.7981,-22.66667 0,-11.14545 0.4442,-13.57108 3.6983,-20.19744 3.6773,-7.48829 13.4311,-19.74241 14.7006,-18.46922 0.3656,0.36666 1.6518,12.64298 2.8581,27.2807 1.2063,14.63771 2.467,26.88771 2.8015,27.22222 0.3345,0.3345 0.6082,-0.6353 0.6082,-2.1551 0,-6.10249 4.289,-51.72636 4.9211,-52.34782 1.2869,-1.26523 11.0261,10.95962 14.714,18.46922 3.2541,6.62636 3.6982,9.05199 3.6982,20.19744 0,11.80078 -0.328,13.35027 -4.7981,22.66667 -5.181,10.79832 -16.1982,25.33333 -19.2019,25.33333 -1.0194,0 -4.6773,-3.45 -8.1287,-7.66666 z m 512.46195,6.78362 c 0.9167,-0.36988 2.4167,-0.36988 3.3334,0 0.9166,0.36988 0.1666,0.67252 -1.6667,0.67252 -1.8333,0 -2.5833,-0.30264 -1.6667,-0.67252 z m 7.3334,-1.3694 c 1.2833,-0.33536 3.3833,-0.33536 4.6666,0 1.2834,0.33538 0.2334,0.60978 -2.3333,0.60978 -2.5667,0 -3.6167,-0.2744 -2.3333,-0.60978 z M 585.60095,475.65236 c 0,-16.50179 11.886,-30.31903 26.0813,-30.31903 h 4.8337 l -5.7908,6.81742 c -3.185,3.74957 -7.2745,8.69957 -9.0878,11 -3.8636,4.90138 -2.2135,3.84709 9.525,-6.08579 4.1588,-3.51907 7.9868,-6.39829 8.5067,-6.39829 2.1175,0 -0.6464,12.40202 -3.8391,17.2264 -3.9701,5.99929 -14.1548,11.47606 -23.8957,12.84984 l -6.3333,0.89321 z m 127.7376,3.84363 c -13.3298,-3.64919 -22.4043,-13.41428 -22.4043,-24.10954 0,-2.59588 0.3327,-4.71978 0.7392,-4.71978 0.4066,0 4.922,3.6 10.0343,8 5.1123,4.4 9.6314,8 10.0425,8 0.4111,0 -3.2561,-4.8 -8.1493,-10.66667 l -8.8968,-10.66667 h 4.9136 c 13.8368,0 24.9146,12.9227 26.2885,30.66667 0.3195,4.12599 -0.025,4.69816 -2.972,4.93853 -1.8333,0.14952 -6.1514,-0.49962 -9.5957,-1.44254 z m -191.7376,-32.82674 c 0,-2.8546 6.8758,-14.89305 11.3087,-19.79969 8.681,-9.60883 25.5516,-16.21964 41.3048,-16.18537 7.9537,0.0173 28.9183,3.80474 35.3865,6.39289 3.2584,1.30379 3.1907,1.39816 -3.0095,4.19496 -8.1877,3.69335 -23.5833,7.51521 -40.136,9.96349 -7.23,1.06939 -13.53,2.36103 -14,2.87031 -0.47,0.50929 6.6455,0.57313 15.8122,0.14188 16.7978,-0.79025 33.2722,-4.07919 41.3458,-8.25419 4.0215,-2.07958 4.1197,-2.0652 2.7953,0.40939 -2.4223,4.5262 -11.1067,11.2104 -19.9285,15.33864 -11.0414,5.16688 -28.3298,6.33811 -45.5923,3.08872 -11.39,-2.14397 -15.8245,-1.80064 -22.4345,1.73692 -1.9598,1.04885 -2.8525,1.08079 -2.8525,0.102 z m 265.3333,-0.0456 c -5.1877,-3.3486 -11.5545,-3.91366 -21.8662,-1.9407 -18.6593,3.57012 -35.7167,2.34714 -48.0371,-3.44414 -6.5454,-3.07666 -16.089,-10.82082 -18.2029,-14.77058 -1.3661,-2.55263 -1.285,-2.56658 2.7604,-0.47463 8.2911,4.28748 24.517,7.47767 42.0125,8.26012 9.5333,0.42635 16.9976,0.40797 16.5873,-0.0408 -0.4103,-0.44881 -7.2919,-1.78851 -15.2924,-2.97708 -17.5017,-2.60013 -31.8248,-6.14619 -40.3369,-9.98652 -6.1549,-2.77681 -6.2191,-2.86728 -2.958,-4.17215 6.3129,-2.526 27.3482,-6.37541 34.9344,-6.39289 22.7333,-0.0524 40.6387,10.03709 49.7615,28.04013 3.684,7.27003 3.905,10.00839 0.6374,7.89927 z m -407.3333,-6.28914 c -1.5477,-0.40022 2.5178,-1.74352 9.6892,-3.2014 17.1958,-3.49578 30.8306,-9.23783 45.6869,-19.24027 16.7996,-11.31087 24.9694,-14.18608 42.459,-14.94259 l 13.835,-0.59844 -2.5017,4.26476 c -3.3765,5.75611 -14.4552,16.08262 -21.9762,20.48423 -8.9955,5.26456 -24.1132,10.08495 -38.5255,12.28409 -12.0028,1.83148 -42.923,2.43483 -48.6667,0.94962 z m 502.6083,-0.93196 c -14.6944,-2.28399 -30.9271,-7.91116 -40.198,-13.93496 -7.8156,-5.07816 -17.4175,-14.54216 -20.3909,-20.09786 l -1.6136,-3.0151 13.7971,0.59702 c 17.4594,0.75551 25.6435,3.64107 42.4304,14.96024 15.0305,10.13484 28.0962,15.65368 45.2772,19.12468 9.2648,1.87174 11.6995,2.75956 9.3161,3.39719 -5.3363,1.42765 -37.1385,0.75312 -48.6183,-1.03121 z m -570.6083,-23.48283 c -48.3858,-4.23039 -76.8983,-23.95793 -81.1011,-56.11313 l -0.8095,-6.1934 10.9555,10.86006 c 16.9028,16.75554 35.0941,25.96099 62.3917,31.57258 12.0215,2.47125 17.0454,2.77613 37.2301,2.25934 23.3214,-0.5971 23.3498,-0.60158 55.754,-8.79304 36.0421,-9.11106 51.7653,-12.1788 62.4206,-12.1788 9.8221,0 9.4156,-2.73246 -1.1746,-7.89609 -7.9195,-3.86141 -16.6864,-5.76184 -34.9552,-7.57733 -7.617,-0.75695 -7.8154,-0.86895 -4.6667,-2.63427 5.6451,-3.16491 22.9227,-8.21905 31.379,-9.17917 10.1627,-1.15387 22.9498,1.08644 31.8255,5.57585 3.7129,1.87801 12.4507,7.4618 19.4174,12.40843 18.9768,13.47436 24.8758,16.75484 38.016,21.14109 15.2371,5.08623 32.157,7.31827 49.5966,6.54264 7.5464,-0.33563 13.7207,-0.46508 13.7207,-0.28769 0,1.31397 -14.8689,4.8814 -25.1009,6.02233 -15.0432,1.67741 -34.493,0.0207 -58.8991,-5.01727 -15.396,-3.17801 -18.3948,-3.3802 -39.3333,-2.65194 -24.6912,0.85877 -38.5594,3.14574 -65.2343,10.75764 -35.7061,10.189 -70.4661,14.08957 -101.4324,11.38217 z m 654.6667,0.51704 c -24.4693,-1.52655 -43.3963,-4.83171 -68.3809,-11.94115 -26.9055,-7.65604 -40.2532,-9.85708 -64.9525,-10.7108 -20.9608,-0.72449 -23.9711,-0.52 -40,2.71738 -25.228,5.0953 -43.201,6.62304 -58.2177,4.94857 -10.5393,-1.17521 -25.1156,-4.71888 -25.1156,-6.10592 0,-0.22247 7.35,-0.44583 16.3333,-0.49635 23.8502,-0.1341 46.8367,-5.07261 64.3334,-13.82154 4.4,-2.20016 13.7,-8.04799 20.6666,-12.99518 6.9667,-4.9472 15.7045,-10.53144 19.4174,-12.40945 16.4775,-8.33448 37.2186,-7.59152 59.916,2.14623 l 6.6666,2.86016 -4,0.86122 c -2.2,0.47368 -7.054,0.93222 -10.7867,1.01899 -14.2532,0.33131 -36.4824,8.33801 -36.5301,13.15775 -0.011,1.12844 2.2953,1.66666 7.1422,1.66666 10.6553,0 26.3786,3.06774 62.4206,12.1788 32.4042,8.19146 32.4326,8.19594 55.754,8.79304 20.1847,0.51679 25.2086,0.21191 37.23015,-2.25934 27.2976,-5.61159 45.4888,-14.81704 62.3916,-31.57258 l 10.9555,-10.86006 -0.8095,6.1934 c -4.3003,32.90178 -32.8821,52.00988 -84.00545,56.16122 -9.2489,0.75104 -18.379,1.25738 -20.2892,1.12519 -1.9102,-0.13213 -6.4731,-0.42749 -10.1397,-0.65624 z m -341.9665,-16.19808 c -4.7408,-4.74083 -5.0572,-7.91099 -1.2701,-12.72553 2.0251,-2.57446 3.9845,-3.51315 7.3334,-3.51315 12.0998,0 13.4714,16.60448 1.6034,19.4126 -2.9123,0.68908 -4.4334,0.0593 -7.6667,-3.17392 z m 53.2998,2.8154 c -6.8625,-2.52329 -9.021,-11.3664 -4,-16.38741 3.9702,-3.97022 11.1073,-3.55558 14.5699,0.84648 3.7619,4.78242 3.4737,7.98173 -1.134,12.58941 -3.8545,3.85453 -5.5433,4.38279 -9.4359,2.95152 z m -29.8687,-17.786 c -2.1278,-2.53077 -4.6778,-6.53215 -5.6667,-8.89192 -2.2571,-5.3864 -2.2251,-16.85252 0.065,-23.26455 2.226,-6.23209 11.145,-18.44494 13.4703,-18.44494 2.462,0 10.9359,11.8715 13.3422,18.69157 3.931,11.14177 1.8518,23.28428 -5.4239,31.67544 l -4.3062,4.96632 -0.7726,-6 c -0.425,-3.3 -1.2711,-11.1 -1.8802,-17.33333 L 655.45255,355.33333 654.49725,366 c -0.5254,5.86667 -1.392,13.63731 -1.9258,17.26808 l -0.9706,6.6014 z m -280.5124,-9.04687 c -7.4619,-2.65798 -19.1979,-10.13904 -24.1126,-15.37045 l -2.9463,-3.13624 6.8997,0.66297 c 3.7948,0.36464 12.0211,-0.13372 18.2806,-1.10745 10.1258,-1.57521 12.3483,-1.51991 20.1536,0.50149 8.3762,2.16923 22.6892,10.44684 23.7378,13.72818 0.9136,2.8591 -10.599,6.23956 -22.965,6.74321 -9.3053,0.379 -13.5826,-0.0749 -19.0478,-2.02171 z m 542.6882,0.007 c -3.8644,-1.37673 -7.4644,-2.94989 -8,-3.49589 -1.4237,-1.45146 7.2332,-8.29164 15.6929,-12.39959 6.5089,-3.16065 8.645,-3.51949 19,-3.1918 6.4167,0.20307 16.4667,0.47935 22.3333,0.61399 5.8667,0.13462 10.6667,0.68082 10.6667,1.21377 0,1.89623 -14.1192,12.15663 -21.3333,15.50283 -9.9477,4.61417 -28.0162,5.44162 -38.3596,1.75669 z M 565.04725,375.939 c -19.2293,-3.00324 -47.4936,-13.06819 -65.4314,-23.30024 -13.9774,-7.97295 -14.7919,-9.01794 -4.5324,-5.81492 11.0068,3.43629 31.3259,6.49278 43.1842,6.49596 18.8479,0.005 37.9762,-4.39674 58.987,-13.57398 5.3095,-2.31913 10.0206,-3.84962 10.4691,-3.40108 0.4486,0.44854 -0.2157,3.92042 -1.4762,7.71527 -1.3816,4.15977 -2.0163,8.95281 -1.5982,12.06976 0.6833,5.09471 0.6127,5.1938 -4.8442,6.80453 -6.199,1.82979 -32.6634,2.27435 -42.817,0.71926 -8.8441,-1.35454 -6.4525,0.65658 5.2795,4.4395 7.809,2.51798 12.9264,3.07916 31.3333,3.43602 12.1,0.23457 23.4915,0.78338 25.3145,1.21956 3.1836,0.76173 3.2099,0.85165 0.6667,2.27674 -3.3826,1.89539 -43.9023,2.57422 -54.5349,0.91362 z m 133.887,0.59352 c -1.8333,-0.33663 -4.8333,-0.95872 -6.6666,-1.38243 l -3.3334,-0.77035 3.2414,-1.23604 c 1.7828,-0.67982 13.1828,-1.41045 25.3334,-1.62361 18.6301,-0.32684 23.5544,-0.86145 31.4252,-3.41173 11.7394,-3.80375 14.1141,-5.80724 5.2795,-4.45416 -10.1536,1.55509 -36.618,1.11053 -42.817,-0.71926 -5.4569,-1.61073 -5.5275,-1.70982 -4.8441,-6.80453 0.418,-3.11695 -0.2167,-7.90999 -1.5983,-12.06976 -1.2605,-3.79485 -1.9302,-7.26125 -1.4884,-7.70309 0.4419,-0.44186 5.753,1.33606 11.8025,3.95092 23.7129,10.24965 43.1865,13.96328 65.6658,12.52244 12.7152,-0.81499 31.415,-4.27067 40,-7.39188 3.777,-1.37316 3.8513,-1.33718 1.3334,0.64528 -10.3067,8.11469 -40.6936,21.32742 -61.54,26.75861 -11.0519,2.8794 -16.7093,3.48963 -35.7934,3.8608 -12.4666,0.24248 -24.1666,0.16543 -26,-0.17121 z M 271.67545,363 c -1.2634,-4.21667 -2.6218,-13.40557 -3.0188,-20.41981 -0.8657,-15.29631 1.4155,-24.82775 8.012,-33.47639 3.9055,-5.12044 12.721,-12.42625 13.7511,-11.39617 0.2169,0.21694 -0.4522,2.77149 -1.487,5.67674 -2.5037,7.0296 -2.452,13.59542 0.1901,24.1137 3.0016,11.94924 1.1371,19.96636 -7.7245,33.21558 -3.6613,5.47416 -6.8299,9.95302 -7.0414,9.95302 -0.2114,0 -1.4181,-3.45 -2.6815,-7.66667 z m 758.02355,-1.83696 c -6.1562,-9.21896 -10.0081,-20.69008 -9.0513,-26.95552 0.3534,-2.31413 1.4336,-7.64456 2.4004,-11.84539 1.7271,-7.50416 0.9675,-15.6417 -2.1379,-22.9019 -1.0683,-2.49748 -1.0139,-2.49748 3.2659,0 5.848,3.41262 11.871,10.42928 15.2839,17.80536 3.7742,8.15678 4.0169,32.82328 0.437,44.40108 -1.3038,4.21666 -2.9042,7.66666 -3.5563,7.66666 -0.6522,0 -3.641,-3.67664 -6.6417,-8.17029 z m -845.42835,5.62352 c -1.7468,-1.18283 -1.6682,-1.96313 0.6276,-6.22607 3.4473,-6.4012 10.0423,-11.3029 16.345,-12.14828 6.0503,-0.8115 16.3598,1.69294 16.3527,3.97251 -0.011,3.30804 -5.3545,10.22699 -9.592,12.41833 -5.1055,2.64012 -20.8237,3.95378 -23.7333,1.98351 z m 921.99695,-0.7816 c -5.7226,-2.01505 -12.6667,-9.08884 -12.6667,-12.9032 0,-1.614 1.7374,-2.80013 5.6411,-3.85131 11.3816,-3.06473 21.6261,1.21684 27.0616,11.31004 2.2901,4.25236 2.3701,5.03472 0.6277,6.13622 -2.9357,1.85581 -14.5313,1.46762 -20.6637,-0.69175 z m -858.75325,-8.7968 c -3.2544,-3.35543 -10.0233,-7.69508 -17.8258,-11.42847 -15.6,-7.46433 -19.9417,-10.73825 -25.8851,-19.51884 -5.5942,-8.26477 -8.8691,-18.78946 -8.8691,-28.50285 0,-8.37903 0.5839,-8.56844 11.5139,-3.73468 15.6149,6.90563 27.7183,19.21408 36.9619,37.58803 4.4934,8.93172 11.0882,29.26906 9.8822,30.47509 -0.2922,0.2922 -2.8923,-1.90303 -5.778,-4.87828 z m 810.67385,1.45851 c 5.7518,-28.74344 23.918,-54.25792 45.7168,-64.20916 12.6384,-5.76952 12.8874,-5.64088 11.9922,6.19588 -1.55,20.49449 -11.799,34.35118 -32.6503,44.14344 -7.6694,3.60169 -14.94,8.21626 -19.1733,12.16912 l -6.8193,6.36738 z M 474.26765,332.10939 c -51.5295,-15.98402 -88.7515,-40.47255 -107.6534,-70.82576 -5.9849,-9.61074 -14.2819,-31.1261 -12.6374,-32.7706 0.4421,-0.44218 2.4885,0.38714 4.5473,1.84293 6.0582,4.28353 27.8483,14.83693 39.5611,19.16028 14.4663,5.33965 32.577,9.81557 52.8491,13.06116 25.2651,4.04501 37.2126,8.46608 52.8833,19.56913 9.9909,7.07878 18.5958,16.95374 24.852,28.52014 5.0923,9.41462 9.9259,23.44982 8.5498,24.82593 -2.072,2.07207 -46.8532,-11.39804 -72.2851,-21.74329 -18.1169,-7.3696 -31.9608,-14.51283 -45.901,-23.68415 -12.7722,-8.40289 -12.6935,-7.56756 0.2863,3.03752 13.4673,11.00343 34.7556,24.70784 53.5927,34.50051 8.8121,4.58104 15.4219,8.30652 14.6886,8.27884 -0.7333,-0.0277 -6.7333,-1.72538 -13.3333,-3.77264 z M 774.22805,331 c 1.4041,-7.59933 10.2709,-25.47963 16.5363,-33.34608 10.2132,-12.82315 26.7112,-23.87 44.1699,-29.57576 4.7667,-1.55781 16.1462,-4.03507 25.2879,-5.50499 36.3893,-5.85121 67.5582,-16.6234 91.1004,-31.48493 2.8584,-1.80441 5.4349,-3.04281 5.7257,-2.75201 1.1628,1.16274 -3.6784,16.18934 -7.946,24.66366 -16.8673,33.49399 -51.7291,58.91372 -104.7822,76.40266 -11.0075,3.6286 -20.4723,6.58222 -21.033,6.56362 -0.5607,-0.0185 6.1904,-3.78194 15.0025,-8.36298 17.9564,-9.33484 39.2678,-22.92908 52.4979,-33.48771 12.8173,-10.22917 14.1053,-12.60928 2.6929,-4.97623 -25.4265,17.00627 -57.6585,30.66834 -99.7733,42.29059 -21.0475,5.80837 -20.6333,5.81752 -19.479,-0.42984 z m -158.7094,-11.71745 c -21.768,-3.17858 -44.8945,-10.08742 -61.251,-18.29824 -41.668,-20.91696 -64.7675,-58.67083 -65.1858,-106.5395 -0.081,-9.28869 0.2986,-17.33481 0.8438,-17.88029 1.8769,-1.87759 11.35,2.11797 16.8461,7.10539 3.0286,2.74821 7.2932,8.29676 9.477,12.33009 l 3.9706,7.33333 0.044,-11.33333 c 0.053,-13.55995 2.6593,-25.46696 8.0472,-36.75609 4.7001,-9.8483 16.1986,-24.90244 23.4577,-30.7115 l 5.1662,-4.13426 -4.3226,8.80092 c -4.9125,10.00193 -8.7273,23.7839 -8.0734,29.16678 0.4312,3.54866 0.5104,3.50447 3.3673,-1.87845 3.417,-6.43815 9.7427,-13.08721 15.0733,-15.84379 2.0689,-1.06985 9.8408,-2.85826 17.2708,-3.97425 24.8736,-3.73594 35.4268,-12.4205 37.2685,-30.66936 0.7665,-7.594949 0.899,-7.836239 2.6174,-4.76561 3.0783,5.50042 3.4934,19.22859 0.7952,26.29386 -3.9972,10.46638 -17.1122,22.17527 -38.4705,34.34592 -36.3461,20.71119 -43.378,32.21462 -39.5932,64.77024 5.4894,47.21819 31.6209,77.50092 78.7339,91.24159 12.6828,3.69897 11.5177,3.96649 -6.0823,1.39655 z m 74.0823,-1.32963 c 41.6999,-12.40813 66.7911,-37.43568 76.146,-75.95292 4.155,-17.1074 4.2955,-38.93553 0.3062,-47.56756 -5.7452,-12.43116 -13.1381,-18.55625 -44.9559,-37.2462 -22.8035,-13.39485 -32.7412,-25.98726 -32.8003,-41.5624 -0.024,-6.32601 2.6376,-16.976809 4.236,-16.950589 0.2207,0.004 0.5599,2.743379 0.7537,6.088349 1.0593,18.28305 12.7234,28.16151 37.6779,31.9096 7.4233,1.11497 15.1033,2.87061 17.0666,3.90144 4.7223,2.47935 12.6678,10.94115 15.738,16.76069 l 2.4619,4.66667 0.4371,-3.63415 c 0.6482,-5.39006 -3.1699,-19.17432 -8.0779,-29.16366 l -4.3226,-8.79782 4.4307,3.46448 c 7.0198,5.48886 19.5881,21.8239 23.8764,31.03219 5.9742,12.82816 7.6785,20.53616 7.686,34.76088 0,7.14739 0.3373,12.99739 0.7412,13 0.4039,0.003 2.0137,-2.62863 3.5774,-5.8472 3.9846,-8.20152 10.1615,-14.82712 16.8345,-18.05748 9.1291,-4.41932 9.7873,-4.02828 10.5078,6.24276 0.8141,11.60615 -1.0166,31.80537 -3.8234,42.18648 -1.2115,4.48077 -4.5499,13.24568 -7.4185,19.47759 -19.2444,41.8065 -61.1028,66.40288 -125.7455,73.88912 -5.7529,0.66624 -5.1133,0.30985 4.6667,-2.60027 z m -54.5664,-7.32801 c -10.5396,-2.20108 -18.7669,-5.44464 -18.7669,-7.39874 0,-2.36488 0.3545,-2.35821 12.2461,0.23046 13.4007,2.91716 38.7265,2.89953 52.8655,-0.0368 11.4127,-2.37012 13.0737,-2.23002 11.8349,0.99833 -1.9578,5.10207 -42.6713,9.44549 -58.1796,6.20676 z m 7.5201,-6.85126 c -21.6993,-1.96004 -26.0197,-3.7333 -37.9098,-15.5596 -11.1389,-11.0792 -13.7106,-16.10009 -13.7106,-26.76829 0,-5.8156 2.2185,-11.308 7.3291,-18.14476 l 3.0142,-4.03233 -3.9009,-9.83004 c -5.9313,-14.94687 -10.4424,-31.68294 -10.4424,-38.74131 0,-9.06011 3.276,-12.63833 14.6799,-16.03457 11.3093,-3.36807 13.5916,-5.43558 13.0574,-11.82859 -0.3675,-4.39777 -0.7349,-4.79952 -4.0706,-4.45036 -2.9842,0.31236 -3.6667,-0.15089 -3.6667,-2.48884 0,-2.30245 0.5818,-2.72052 2.9307,-2.10627 1.6118,0.42151 3.7118,0.118 4.6666,-0.67442 1.3981,-1.16034 1.7361,0.4018 1.7361,8.02506 0,10.9719 -0.7442,11.81083 -13.8001,15.55638 -8.4925,2.43641 -12.3415,5.41462 -13.6294,10.54606 -1.7703,7.05358 11.9937,50.02647 15.6469,48.85168 9.0569,-2.91241 94.623,-2.8548 100.0831,0.0675 2.0442,1.09399 2.7961,0.39061 4.9474,-4.62824 5.6285,-13.13088 11.0605,-32.4572 11.2366,-39.97864 0.2185,-9.33367 -1.7857,-11.54207 -13.5327,-14.91104 -12.8568,-3.68733 -13.6185,-4.55449 -13.6185,-15.50367 0,-7.62326 0.3379,-9.1854 1.7361,-8.02506 0.9548,0.79244 3.0548,1.09593 4.6666,0.67442 2.3489,-0.61425 2.9306,-0.19618 2.9306,2.10627 0,2.33795 -0.6824,2.8012 -3.6666,2.48884 -3.3373,-0.34932 -3.703,0.0516 -4.0714,4.46328 -0.3278,3.92583 0.2681,5.37633 3.1353,7.63163 1.947,1.5315 5.7291,3.1805 8.4047,3.66445 6.1644,1.11499 10.8263,3.46444 14.1403,7.12632 4.8486,5.35767 2.5057,19.50453 -7.9601,48.06385 l -3.6646,10 4.8412,7.13399 c 6.0887,8.97227 6.4672,14.68736 1.1746,17.73749 -3.641,2.09831 -13.4945,5.4461 -20.824,7.07508 -2.1032,0.46744 -3.5427,1.13122 -3.1989,1.47506 0.6006,0.60058 16.3367,-1.32651 23.5448,-2.88336 3.2788,-0.70819 3.2298,-0.58486 -0.8553,2.15286 -5.2864,3.54283 -5.4008,4.02224 -0.6666,2.79246 4.1404,-1.07552 8.3279,-7.99692 8.3312,-13.77031 10e-4,-1.99104 -0.899,-6.27424 -2.0004,-9.51821 -1.8501,-5.44955 -1.8006,-6.54327 0.6512,-14.37994 2.5955,-8.29572 11.6464,-21.97238 19.2231,-29.04753 3.3411,-3.11997 3.4615,-3.13673 3.4615,-0.48172 0,2.10888 1.1341,2.96344 4.8604,3.66249 l 4.8603,0.9118 -3.8603,2.37902 c -9.9819,6.15154 -12.527,12.82974 -12.527,32.8698 0,13.49376 -0.3815,16.20672 -2.9121,20.70937 -2.8135,5.00595 -11.18,10.51499 -15.9689,10.51499 -1.1215,0 -3.0866,1.15752 -4.3669,2.57226 -3.0661,3.38798 -10.101,6.65719 -20.7521,9.64374 l -8.6667,2.43012 8.2779,-0.52494 8.278,-0.52493 -2.001,3.05395 c -2.2866,3.4897 -14.1357,6.96566 -27.5927,8.09437 -4.5625,0.38268 -10.0955,0.85883 -12.2955,1.05811 -2.2,0.19928 -9.2709,-0.11374 -15.713,-0.6957 z m -17.6106,-6.4245 c -1.0284,-1.66396 -12.6271,-8.51088 -13.2885,-7.84447 -1.2958,1.30541 5.1481,6.95809 8.9655,7.86468 2.3723,0.56339 4.4987,1.08576 4.7253,1.16083 0.2266,0.0751 0.046,-0.4564 -0.4023,-1.18104 z M 605.60095,228 c 0,-1.48148 0.8889,-2.66667 2,-2.66667 1.1,0 2,-0.9 2,-2 0,-1.1 0.6177,-2 1.3726,-2 0.7549,0 4.3536,-2.35642 7.9972,-5.23649 6.3621,-5.02899 18.9056,-10.74123 23.6802,-10.78392 1.2559,-0.0107 2.8833,-0.46123 3.6167,-1 2.4623,-1.80905 4.6306,-6.85535 3.8357,-8.92688 -0.6278,-1.63612 0.2891,-2.05271 4.5179,-2.05271 5.1551,0 5.3296,0.15064 6.1548,5.31099 0.7041,4.40308 1.474,5.449 4.5038,6.11833 7.5864,1.67598 15.812,4.67343 20.2446,7.37727 4.2889,2.61613 4.4202,2.89557 2,4.2568 -1.4246,0.80128 -5.5902,2.18879 -9.2568,3.08335 -6.5729,1.60361 -6.4651,1.62808 7.6666,1.73986 7.8834,0.0624 14.3334,0.67167 14.3334,1.354 0,0.68234 -1.35,1.50062 -3,1.81843 -1.8571,0.35769 -1.0952,0.647 2,0.7594 4.0506,0.14709 5,0.68793 5,2.84824 0,2.61861 -0.8889,2.66667 -49.3334,2.66667 -48.4444,0 -49.3333,-0.048 -49.3333,-2.66667 z m 85.6667,-3.54971 c -0.9167,-0.36988 -2.4167,-0.36988 -3.3334,0 -0.9166,0.36988 -0.1666,0.67252 1.6667,0.67252 1.8333,0 2.5833,-0.30264 1.6667,-0.67252 z m -43,-34.18362 c 0,-2.77272 2.9197,-4.93334 6.6666,-4.93334 3.747,0 6.6667,2.16062 6.6667,4.93334 0,1.1911 -2.0855,1.73333 -6.6667,1.73333 -4.5812,0 -6.6666,-0.54223 -6.6666,-1.73333 z M 618.93425,156 c 0,-4.80947 0.5175,-6.66667 1.8574,-6.66667 1.0215,0 2.2027,0.9 2.6248,2 0.8914,2.32282 6.5044,2.63622 10.3504,0.57791 1.4614,-0.78216 4.422,-1.03448 6.579,-0.56073 3.2178,0.70674 3.9218,1.54137 3.9218,4.64949 0,3.10812 -0.704,3.94275 -3.9218,4.64949 -2.157,0.47375 -5.1176,0.22143 -6.579,-0.56073 -3.846,-2.05831 -9.459,-1.74491 -10.3504,0.57791 -0.4221,1.1 -1.6033,2 -2.6248,2 -1.3399,0 -1.8574,-1.8572 -1.8574,-6.66667 z m 30.9147,5.26021 c -2.4743,-0.99236 -3.0024,-2.08042 -2.6667,-5.49425 0.3302,-3.35719 1.1936,-4.4624 4.0854,-5.22943 2.0166,-0.53492 5.3166,-0.53492 7.3333,0 2.8892,0.76635 3.7553,1.87298 4.0846,5.21888 0.3486,3.54316 -0.1625,4.46695 -3.0868,5.57878 -4.1594,1.5814 -5.6506,1.57008 -9.7498,-0.074 z m 36.6032,-0.59354 c -0.8914,-2.32282 -6.5044,-2.63622 -10.3504,-0.57791 -1.4614,0.78216 -4.422,1.03448 -6.579,0.56073 -3.2178,-0.70674 -3.9218,-1.54137 -3.9218,-4.64949 0,-3.10812 0.704,-3.94275 3.9218,-4.64949 2.157,-0.47375 5.1176,-0.22143 6.579,0.56073 3.846,2.05831 9.459,1.74491 10.3504,-0.57791 0.4221,-1.1 1.6033,-2 2.6248,-2 1.3399,0 1.8573,1.8572 1.8573,6.66667 0,4.80947 -0.5174,6.66667 -1.8573,6.66667 -1.0215,0 -2.2027,-0.9 -2.6248,-2 z m -167.6633,-10.69595 c -0.9041,-2.18389 -1.6913,-9.97072 -1.7492,-17.30405 -0.1296,-16.40058 2.2244,-21.98465 11.7653,-27.91006 5.439,-3.37786 7.8726,-3.9771 17.8793,-4.40262 l 11.5834,-0.492549 -4,2.956619 c -13.1832,9.74437 -25.682,26.89735 -30.9021,42.4089 l -2.9327,8.71447 z m 269.1889,-4.36123 c -4.2815,-14.34734 -17.8325,-33.02651 -31.0435,-42.79143 l -4,-2.956619 11.3651,0.481089 c 21.1033,0.89333 30.6349,10.41388 30.6349,30.59934 0,7.57309 -2.1332,19.37152 -3.8574,21.33429 -0.4555,0.51855 -1.8501,-2.48145 -3.0991,-6.66667 z m -135.486,-14.98044 c -0.3601,-3.27363 -9.4575,-21.56158 -13.1177,-26.36982 -1.8454,-2.42409 -8.9055,-8.826059 -15.6891,-14.226609 -6.7837,-5.40054 -13.961,-11.75273 -15.9495,-14.11597 -5.0334,-5.981848 -9.9036,-16.003152 -10.9463,-22.52405 l -0.8786,-5.494448 7.1785,2.776859 c 9.8381,3.805645 23.9877,13.608669 31.1649,21.591449 8.9534,9.95833 16.0211,25.11395 17.9823,38.560619 0.8963,6.1451 1.3708,13.57292 1.0546,16.50625 -0.3162,2.93334 -0.6758,4.41641 -0.7991,3.29572 z m 5.7559,-11.54035 c 2.0968,-22.375839 8.274,-36.139239 22.6336,-50.430215 8.6823,-8.640842 22.0528,-17.197304 31.2288,-19.984945 3.0615,-0.930095 3.1416,-0.779813 2.2279,4.180843 -2.5296,13.73411 -9.3087,23.184738 -26.1736,36.488138 -13.6698,10.783059 -19.6507,18.229399 -24.8785,30.974379 -2.0267,4.94097 -4.2054,8.99097 -4.8415,9 -0.6365,0.009 -0.7249,-4.59089 -0.1967,-10.2282 z m -11.98,-43.607159 c -10.2464,-4.47617 -17.3763,-15.230452 -16.4336,-24.787338 l 0.4336,-4.395987 6.9039,6.2214 c 4.5728,4.120755 7.6977,8.347288 9.2547,12.517559 1.2929,3.462888 3.2052,7.646156 4.2494,9.296156 2.1575,3.409 1.2865,3.63588 -4.408,1.14821 z m 14.144,-0.97332 c 1.1073,-1.74619 3.0711,-6.008158 4.364,-9.471046 1.5572,-4.170696 4.6814,-8.396118 9.2547,-12.51677 l 6.9039,-6.22061 0.4206,4.962684 c 0.8429,9.947572 -8.697,22.290972 -19.6885,25.474212 -3.1627,0.91594 -3.2031,0.84416 -1.2547,-2.22847 z m -9.7422,-17.174888 c -9.5649,-14.077064 -9.1346,-31.587861 1.1062,-45.014159 3.2784,-4.2982035 3.5344,-4.3923845 5.9642,-2.193516 5.1835,4.691045 9.6965,16.398014 9.6626,25.065517 -0.033,8.319342 -4.1036,20.4065 -7.9476,23.59677 -1.5411,1.278962 -1.8825,0.329872 -2.0235,-5.624685 -0.093,-3.939793 -0.5525,-13.76326 -1.0205,-21.829927 l -0.8508,-14.666666 -1.3129,22 c -1.2716,21.308001 -1.3841,21.895152 -3.5777,18.666666 z"
     style="fill:#000000;stroke-width:1.33333337" />
</svg>
